<?xml version="1.0" encoding="utf-8"?>
<!-- Generator: Adobe Illustrator 17.0.2, SVG Export Plug-In . SVG Version: 6.00 Build 0)  -->
<!DOCTYPE svg PUBLIC "-//W3C//DTD SVG 1.1//EN" "http://www.w3.org/Graphics/SVG/1.1/DTD/svg11.dtd">
<svg version="1.1" id="Ebene_1" xmlns="http://www.w3.org/2000/svg" xmlns:xlink="http://www.w3.org/1999/xlink" x="0px" y="0px"
	 width="656px" height="92px" viewBox="0 0 656 92" enable-background="new 0 0 656 92" xml:space="preserve">
<g>
	<path d="M81.937,80.081c12.589,0,22.054-2.922,30.154-7.303V41.521H91.636l-6.432,11.295H97.16v12.561
		c-5.172,1.85-8.978,2.629-15.223,2.629c-9.759,0-17.858-3.797-17.858-13.924V37.918c0-9.348,8.587-13.827,19.419-13.827
		c8.686,0,14.833,1.947,21.176,5.258l5.172-10.711c-7.416-3.992-16.492-6.719-27.031-6.719c-18.346,0-33.569,8.569-33.569,24.344
		v19.474C49.246,71.999,63.688,80.081,81.937,80.081 M170.279,54.082c0,9.543-6.538,13.924-16.882,13.924h-1.464
		c-10.344,0-16.883-4.381-16.883-13.924V37.139c0-8.179,6.929-13.048,16.785-13.048h1.562c9.661,0,16.882,4.479,16.882,13.145
		V54.082z M185.21,55.737V35.484c0-14.606-14.053-23.565-31.813-23.565h-1.562c-18.346,0-31.715,8.764-31.715,23.565v20.253
		c0,16.262,12.881,24.344,31.813,24.344h1.464C171.938,80.081,185.21,71.804,185.21,55.737 M192.819,79.107h54.648V67.033h-39.815
		v-54.14h-14.833V79.107z M299.002,51.356c0,11.197-7.709,15.677-16.492,15.677h-15.418V25.065h16.492
		c8.685,0,15.418,4.868,15.418,15.677V51.356z M313.738,53.887V38.21c0-17.332-12.491-25.317-30.154-25.317h-31.13v66.214h30.056
		C299.881,79.107,313.738,71.22,313.738,53.887 M396.544,79.107l17.566-66.214h-15.321l-11.808,49.466l-16.102-49.466H357.51
		l-15.907,49.271l-12.1-49.271h-15.321l17.76,66.214h16.395l15.711-47.323l16.102,47.323H396.544z M420.773,79.107h53.77V67.033
		h-38.937V51.356h30.934V39.573h-30.934V25.065h36.887V12.893h-51.72L420.773,79.107L420.773,79.107z M480.298,79.107h54.648V67.033
		h-39.815v-54.14h-14.833L480.298,79.107L480.298,79.107z M541.165,79.107h54.648V67.033h-39.815v-54.14h-14.833V79.107z"/>
	<path fill="none" stroke="#000000" stroke-width="1.292" stroke-linejoin="round" stroke-miterlimit="10" d="M81.937,80.081
		c12.589,0,22.054-2.922,30.154-7.303V41.521H91.636l-6.432,11.295H97.16v12.561c-5.172,1.85-8.978,2.629-15.223,2.629
		c-9.759,0-17.858-3.797-17.858-13.924V37.918c0-9.348,8.587-13.827,19.419-13.827c8.686,0,14.833,1.947,21.176,5.258l5.172-10.711
		c-7.416-3.992-16.492-6.719-27.031-6.719c-18.346,0-33.569,8.569-33.569,24.344v19.474C49.246,71.999,63.688,80.081,81.937,80.081z
		 M170.279,54.082c0,9.543-6.538,13.924-16.882,13.924h-1.464c-10.344,0-16.883-4.381-16.883-13.924V37.139
		c0-8.179,6.929-13.048,16.785-13.048h1.562c9.661,0,16.882,4.479,16.882,13.145V54.082z M185.21,55.737V35.484
		c0-14.606-14.053-23.565-31.813-23.565h-1.562c-18.346,0-31.715,8.764-31.715,23.565v20.253c0,16.262,12.881,24.344,31.813,24.344
		h1.464C171.938,80.081,185.21,71.804,185.21,55.737z M192.819,79.107h54.648V67.033h-39.815v-54.14h-14.833V79.107z
		 M299.002,51.356c0,11.197-7.709,15.677-16.492,15.677h-15.418V25.065h16.492c8.685,0,15.418,4.868,15.418,15.677V51.356z
		 M313.738,53.887V38.21c0-17.332-12.491-25.317-30.154-25.317h-31.13v66.214h30.056C299.881,79.107,313.738,71.22,313.738,53.887z
		 M396.544,79.107l17.566-66.214h-15.321l-11.808,49.466l-16.102-49.466H357.51l-15.907,49.271l-12.1-49.271h-15.321l17.76,66.214
		h16.395l15.711-47.323l16.102,47.323H396.544z M420.773,79.107h53.77V67.033h-38.937V51.356h30.934V39.573h-30.934V25.065h36.887
		V12.893h-51.72L420.773,79.107L420.773,79.107z M480.298,79.107h54.648V67.033h-39.815v-54.14h-14.833L480.298,79.107
		L480.298,79.107z M541.165,79.107h54.648V67.033h-39.815v-54.14h-14.833V79.107z"/>
	<rect x="608.28" y="67.173" fill="#DB001B" width="11.917" height="11.917"/>
	
		<rect x="608.28" y="67.173" fill="none" stroke="#DB001B" stroke-width="1.292" stroke-linejoin="round" stroke-miterlimit="10" width="11.917" height="11.917"/>
</g>
</svg>
